<svg width="50" height="50" viewBox="0 0 50 50" fill="none" xmlns="http://www.w3.org/2000/svg">
<circle cx="25" cy="25" r="25" fill="#17BED2"/>
<path d="M34.3243 36.298L35.5123 36.01C35.8963 36.01 36.0883 36.202 36.0883 36.586C36.0643 37.21 35.7403 37.762 35.1163 38.242C34.5163 38.746 33.8323 38.998 33.0643 38.998C32.2963 38.998 31.6843 38.626 31.2283 37.882C30.5803 36.802 29.9683 34.87 29.3923 32.086C29.1283 30.742 28.8163 29.638 28.4563 28.774C27.8083 28.99 27.1243 29.098 26.4043 29.098C25.6843 29.098 25.0483 28.954 24.4963 28.666C23.9683 28.354 23.7043 27.982 23.7043 27.55C23.7523 26.446 24.6403 25.894 26.3683 25.894C27.2083 25.894 28.1083 26.266 29.0683 27.01C30.5563 25.882 31.3003 24.31 31.3003 22.294C31.3003 21.094 31.0723 20.038 30.6163 19.126C30.1603 18.19 29.5603 17.458 28.8163 16.93C27.3523 15.898 25.7203 15.382 23.9203 15.382C23.8723 15.91 23.7883 16.75 23.6683 17.902C23.4283 20.302 23.2843 22.162 23.2363 23.482L23.1283 29.17C23.1283 33.538 22.2643 35.722 20.5363 35.722C19.4323 35.722 18.8803 35.254 18.8803 34.318C18.8803 34.078 19.0363 33.67 19.3483 33.094C19.6843 32.518 19.9243 31.858 20.0683 31.114C20.2123 30.346 20.3683 28.126 20.5363 24.454C20.7043 20.758 20.9323 17.854 21.2203 15.742C19.9483 16.102 18.9043 16.654 18.0883 17.398C17.2963 18.142 16.9003 19.018 16.9003 20.026C16.9003 20.602 16.7683 21.07 16.5043 21.43C16.2403 21.766 15.9163 21.934 15.5323 21.934C14.8363 21.934 14.4883 21.562 14.4883 20.818C14.4883 19.138 15.1603 17.758 16.5043 16.678C17.8723 15.574 19.5523 14.782 21.5443 14.302C22.0243 12.694 22.6963 11.89 23.5603 11.89C23.8963 11.89 24.0643 12.274 24.0643 13.042C24.0643 13.21 24.0403 13.51 23.9923 13.942C24.2563 13.894 24.7603 13.87 25.5043 13.87C26.2483 13.87 27.0883 13.978 28.0243 14.194C28.9603 14.41 29.8963 14.782 30.8323 15.31C31.7923 15.814 32.5603 16.594 33.1363 17.65C33.7123 18.682 34.0003 19.894 34.0003 21.286C34.0003 22.678 33.6403 23.974 32.9203 25.174C32.2003 26.374 31.2643 27.334 30.1123 28.054C30.9283 29.062 31.5643 30.298 32.0203 31.762C32.5003 33.226 32.9443 34.342 33.3523 35.11C33.7603 35.902 34.0843 36.298 34.3243 36.298ZM25.1803 27.118C25.1803 27.31 25.3483 27.478 25.6843 27.622C26.0203 27.766 26.3683 27.838 26.7283 27.838C27.1123 27.838 27.4603 27.778 27.7723 27.658C27.2923 27.106 26.7403 26.83 26.1163 26.83C25.4923 26.83 25.1803 26.926 25.1803 27.118Z" fill="#CAECFC"/>
</svg>
