<svg width="193" height="206" viewBox="0 0 193 206" fill="none" xmlns="http://www.w3.org/2000/svg">
<rect width="193" height="203.938" rx="16" fill="#563D7C"/>
<rect x="15.0781" y="22.3059" width="156.812" height="163.575" fill="white"/>
<path fill-rule="evenodd" clip-rule="evenodd" d="M101.307 1.06201H177C185.837 1.06201 193 8.22546 193 17.062V189C193 197.836 185.837 205 177 205H114.122C102.793 205.004 90.8843 205.004 79.5314 205H16C7.16344 205 0 197.836 0 189V68.3523C0 68.3484 0 68.3444 0 68.3405V17.062C0 8.22546 7.16346 1.06201 16 1.06201H101.307ZM129.363 44.257C125.136 42.664 119.495 41.6745 112.839 41.3587C111.793 41.309 100.233 41.2777 82.7444 41.2773L56.3484 41.2766C55.2438 41.2765 54.3483 42.172 54.3483 43.2766V103.041V162.806C54.3483 163.91 55.2438 164.806 56.3484 164.806L83.5551 164.805C102.02 164.804 113.259 164.774 114.113 164.722C128.496 163.855 139.774 158.522 146.115 149.589C149.503 144.817 151.321 139.937 151.982 133.842C152.604 128.109 152.093 122.124 150.543 116.993C149.71 114.234 148.218 111.1 146.621 108.752C143.186 103.704 138.149 100.069 131.642 97.9415C131.339 97.8423 131.303 97.4274 131.585 97.2779L131.622 97.2585C133.172 96.4367 135.267 95.0787 136.647 94.002C138.788 92.3319 141.049 89.9137 142.462 87.7836C144.759 84.3218 146.092 80.1912 146.557 75.0962C146.676 73.7914 146.674 69.8611 146.552 68.3649C146.201 64.0169 145.409 60.5833 144.079 57.6329C141.182 51.2076 136.49 46.943 129.363 44.257ZM80.0611 89.2946V76.8502V64.4059C80.0611 63.2998 80.959 62.4037 82.0652 62.4059L93.5159 62.4292C105.236 62.453 107.014 62.4388 108.753 62.6934C109.2 62.7587 109.643 62.8418 110.252 62.9478C115.222 63.8128 118.596 66.0735 120.394 69.7439C120.627 70.2195 120.925 70.9574 121.056 71.3838C121.961 74.3152 121.992 78.5545 121.134 81.7728C120.117 85.5818 117.914 88.0675 114.075 89.7351C112.566 90.3909 111.193 90.7703 109.249 91.0694C108.148 91.2388 107.896 91.2421 94.095 91.2701L82.0652 91.2946C80.959 91.2969 80.0611 90.4008 80.0611 89.2946ZM80.0611 141.674V126.741V111.811C80.0611 110.705 80.9586 109.809 82.0645 109.811L95.3305 109.834C109.392 109.858 110.682 109.871 111.642 110.004C115.969 110.602 119.588 112.132 122.056 114.408C125.004 117.128 126.474 121.429 126.479 127.355C126.483 131.492 125.836 134.106 124.148 136.773C121.614 140.777 116.956 143.038 110.102 143.59C109.444 143.643 103.742 143.674 94.5622 143.674H82.0611C80.9565 143.674 80.0611 142.778 80.0611 141.674Z" fill="#563D7C"/>
</svg>
