<svg width="193" height="204" viewBox="0 0 193 204" fill="none" xmlns="http://www.w3.org/2000/svg">
<rect x="29.151" y="13.8123" width="144.75" height="174.25" fill="white"/>
<path fill-rule="evenodd" clip-rule="evenodd" d="M182.479 0C188.289 0 193 4.97902 193 11.121V192.879C193 199.021 188.289 204 182.479 204H10.5213C4.71054 204 0 199.021 0 192.879V11.121C0 4.97902 4.71054 0 10.5213 0H182.479ZM82.4271 23.3748H65.3385L65.3386 30.8123V44.6252H70.3646H72.375H82.4271V37.1877H72.375V30.8123H82.4271V23.3748ZM94.6724 37.1877L88.4584 30.8127H99.3329L105.547 37.1877V44.6252H88.4584V37.1877H94.6724ZM117.792 37.1877L111.578 30.8127H122.453L128.667 37.1877V44.6252H111.578V37.1877H117.792ZM88.4584 23.3749H105.547V30.8124H88.4584V23.3749ZM128.667 23.3749H111.578V30.8124H128.667V23.3749ZM44.2292 54.7189H149.273L139.724 166.813L97.5052 179.563L53.7786 166.813L44.2292 54.7189ZM63.3282 77.0313L65.3386 90.8438H98.5105L66.8464 104.656L67.8516 118.469H113.086L112.081 136.531L97.5053 141.313L82.4271 137.594L81.4219 126.438H68.8568L70.3646 147.156L97.5053 155.656L124.143 147.156L127.159 104.656H96.5L128.667 90.8438L129.672 77.0313H63.3282Z" fill="#379AD6"/>
</svg>
