<svg width="193" height="204" viewBox="0 0 193 204" fill="none" xmlns="http://www.w3.org/2000/svg">
<rect x="38.1979" y="4.24976" width="129.672" height="188.062" fill="white"/>
<path d="M64.0364 79.9418C64.1446 81.2617 64.9522 90.6032 65.8313 100.7C66.7103 110.798 67.4294 119.196 67.4294 119.363C67.4294 119.559 75.4255 119.664 90.0194 119.659L112.609 119.652L112.546 120.507C112.08 126.767 111.215 137.178 111.155 137.246C111.112 137.295 107.817 138.309 103.833 139.5L96.5888 141.664L89.4278 139.499C85.4891 138.309 82.2133 137.278 82.1481 137.209C82.0829 137.14 81.801 134.731 81.5218 131.855L81.0141 126.628L74.5143 126.544C70.9391 126.499 68.0105 126.568 68.0058 126.699C67.9505 128.248 69.9361 147.781 70.1758 148.048C70.354 148.247 74.7766 149.617 80.0038 151.092C85.2309 152.567 91.1338 154.245 93.1212 154.822L96.7347 155.871L109.79 152.119C116.97 150.056 122.934 148.284 123.044 148.182C123.214 148.024 123.508 144.634 124.605 130.189C124.624 129.933 124.646 129.65 124.669 129.356C124.682 129.193 124.695 129.027 124.708 128.86C124.774 128.026 124.844 127.173 124.891 126.628C124.964 125.776 125.094 124.173 125.181 123.066C125.267 121.959 125.599 117.721 125.919 113.649C126.238 109.576 126.5 106.092 126.5 105.907C126.5 105.665 119.883 105.592 103.197 105.65C90.3802 105.694 79.7877 105.619 79.6578 105.481C79.528 105.344 79.1613 102.659 78.8431 99.5158C78.525 96.3724 78.2036 93.3483 78.1293 92.7958L77.9942 91.7909L128.104 91.6326L128.442 86.8324C128.628 84.1922 128.865 81.022 128.968 79.7869L129.156 77.5417H63.8396L64.0364 79.9418Z" fill="#E44D25"/>
<path fill-rule="evenodd" clip-rule="evenodd" d="M182.479 0C188.289 0 193 4.97902 193 11.121V192.879C193 199.021 188.289 204 182.479 204H10.5213C4.71054 204 0 199.021 0 192.879V11.121C0 4.97902 4.71054 0 10.5213 0H182.479ZM96.8928 179.673C100.422 178.744 135.92 168.436 138.818 167.49C139.168 167.376 139.34 166.79 139.474 165.253C139.573 164.108 140.182 156.83 140.826 149.08C141.47 141.33 142.129 133.526 142.291 131.738C142.452 129.949 143.112 122.145 143.756 114.395C144.4 106.645 144.989 99.6768 145.065 98.9103C145.141 98.1439 145.472 94.2418 145.799 90.239C146.127 86.2363 146.461 82.2644 146.542 81.4128C146.815 78.5463 148.724 55.473 148.724 55.0466C148.724 54.6917 140.424 54.6245 96.6721 54.6245H44.6201V55.3866C44.6201 55.8056 44.7517 57.513 44.9128 59.1804C45.0736 60.8478 45.531 66.1141 45.929 70.8833C46.3267 75.6526 47.182 85.8609 47.8295 93.5682C48.4769 101.275 49.5358 113.888 50.1826 121.595C50.8295 129.303 51.6138 138.605 51.9252 142.267C52.2366 145.929 52.8385 153.037 53.2622 158.061C53.6862 163.086 54.0813 167.25 54.1403 167.315C54.3247 167.516 92.5442 178.703 96.3191 179.673H96.8928ZM61.0153 31.0879H66.8253L66.9907 24.1198H73.4241L73.578 45.3542L66.9907 45.1789L66.8253 38.2108H60.996V45.3337H54.2702V34.8559C54.2702 29.0929 54.328 24.3165 54.3988 24.2416C54.4696 24.1666 55.9502 24.11 57.6886 24.1158L60.8498 24.126L61.0153 31.0879ZM94.9369 31.0879H89.069V45.3337H82.3432V31.0879H76.4946V24.1198L94.7714 24.1487L94.9369 31.0879ZM106.652 27.6804C107.78 29.6348 108.741 31.2746 108.787 31.3239C108.834 31.3735 109.771 29.8423 110.871 27.9216C111.97 26.0009 112.963 24.3598 113.077 24.2747C113.191 24.1896 114.777 24.1224 116.602 24.1254L119.92 24.131L120.074 45.3337H113.34L113.335 34.9591L111.104 38.6209C109.296 41.5874 108.804 42.2049 108.512 41.8726C108.314 41.6472 107.28 40.0101 106.214 38.2346L104.275 35.0068V45.3337H97.5494V34.8559C97.5494 29.0929 97.607 24.3168 97.6775 24.2422C97.748 24.1676 99.335 24.1109 101.204 24.1164L104.602 24.126L106.652 27.6804ZM130.02 38.2108H139.367V45.3337H123.283V34.8559C123.283 29.0929 123.341 24.3165 123.412 24.2416C123.482 24.1666 124.963 24.1102 126.701 24.1162L129.863 24.1267L130.02 38.2108Z" fill="#E44D25"/>
</svg>
