<svg width="193" height="204" viewBox="0 0 193 204" fill="none" xmlns="http://www.w3.org/2000/svg">
<rect width="193" height="204" rx="16" fill="#F7DF1E"/>
<path fill-rule="evenodd" clip-rule="evenodd" d="M137.857 98.9851C134.992 99.3686 131.781 100.396 129.225 101.746C121.126 106.023 116.784 114.527 117.628 124.463C118.471 134.381 123.259 140.897 133.672 146.291C134.967 146.962 138.067 148.429 140.56 149.551C148.363 153.063 151.088 154.718 152.603 156.866C153.676 158.387 153.984 159.459 153.975 161.654C153.966 164.102 153.573 165.152 152.021 166.868C149.954 169.155 146.872 170.29 142.72 170.295C136.357 170.303 131.721 167.785 127.811 162.2C127.11 161.2 126.435 160.237 126.311 160.062C126.105 159.771 125.517 160.089 119.376 163.824C115.686 166.068 112.644 167.974 112.617 168.059C112.589 168.145 112.941 168.888 113.397 169.71C115.826 174.089 119.488 178.006 123.648 180.675C131.012 185.401 141.529 187.109 151.034 185.124C156.692 183.942 161.284 181.533 164.717 177.946C166.571 176.009 167.716 174.307 168.855 171.799C171.858 165.186 171.489 155.043 168.021 148.826C164.594 142.685 159.251 138.76 146.577 133.074C136.821 128.698 134.635 126.881 134.218 122.806C133.776 118.498 135.768 115.418 139.683 114.354C141.961 113.735 145.451 114.153 147.506 115.292C148.642 115.921 151.003 118.359 151.906 119.835C152.284 120.453 152.672 121.085 152.768 121.24C152.914 121.475 153.976 120.827 159.286 117.264C162.776 114.922 165.71 112.923 165.808 112.821C166.038 112.581 163.772 109.013 162.247 107.215C158.287 102.546 153.436 99.9272 147.135 99.0587C145.014 98.7663 139.799 98.725 137.857 98.9851ZM86.5831 130.767C86.5808 160.374 86.5654 161.914 86.2554 163.481C85.6853 166.363 84.3873 168.362 82.4893 169.279C79.8153 170.571 75.8822 170.549 73.3746 169.229C71.4083 168.193 69.2472 165.644 67.3794 162.156C67.152 161.732 66.8966 161.384 66.812 161.383C66.5146 161.38 53.276 169.826 53.276 170.018C53.276 170.368 55.28 173.841 56.2902 175.241C57.6081 177.069 60.5407 179.986 62.261 181.182C68.1433 185.27 76.2322 186.811 84.3182 185.385C95.7314 183.373 102.263 175.652 103.317 162.928C103.433 161.53 103.499 149.763 103.5 130.221L103.502 99.6969H95.0435H86.5853L86.5831 130.767Z" fill="black"/>
</svg>
